<?xml version="1.0" encoding="UTF-8" standalone="no"?>
<svg
   xmlns:dc="http://purl.org/dc/elements/1.1/"
   xmlns:cc="http://creativecommons.org/ns#"
   xmlns:rdf="http://www.w3.org/1999/02/22-rdf-syntax-ns#"
   xmlns:svg="http://www.w3.org/2000/svg"
   xmlns="http://www.w3.org/2000/svg"
   xmlns:sodipodi="http://sodipodi.sourceforge.net/DTD/sodipodi-0.dtd"
   xmlns:inkscape="http://www.inkscape.org/namespaces/inkscape"
   inkscape:export-ydpi="576"
   inkscape:export-xdpi="576"
   inkscape:export-filename="D:\Project Real\Februari 1\export\flat\png\01 - Apple.png"
   width="64pt"
   height="64pt"
   viewBox="0 0 22.577778 22.577778"
   version="1.1"
   id="svg831"
   inkscape:version="1.0 (4035a4fb49, 2020-05-01)"
   sodipodi:docname="02 - Avocado.svg">
  <defs
     id="defs825">
    <pattern
       id="EMFhbasepattern"
       patternUnits="userSpaceOnUse"
       width="6"
       height="6"
       x="0"
       y="0" />
    <pattern
       id="EMFhbasepattern-9"
       patternUnits="userSpaceOnUse"
       width="6"
       height="6"
       x="0"
       y="0" />
    <pattern
       id="EMFhbasepattern-0"
       patternUnits="userSpaceOnUse"
       width="6"
       height="6"
       x="0"
       y="0" />
    <pattern
       id="EMFhbasepattern-7"
       patternUnits="userSpaceOnUse"
       width="6"
       height="6"
       x="0"
       y="0" />
    <pattern
       id="EMFhbasepattern-2"
       patternUnits="userSpaceOnUse"
       width="6"
       height="6"
       x="0"
       y="0" />
    <pattern
       id="EMFhbasepattern-98"
       patternUnits="userSpaceOnUse"
       width="6"
       height="6"
       x="0"
       y="0" />
    <pattern
       id="EMFhbasepattern-6"
       patternUnits="userSpaceOnUse"
       width="6"
       height="6"
       x="0"
       y="0" />
    <pattern
       id="EMFhbasepattern-01"
       patternUnits="userSpaceOnUse"
       width="6"
       height="6"
       x="0"
       y="0" />
    <pattern
       id="EMFhbasepattern-07"
       patternUnits="userSpaceOnUse"
       width="6"
       height="6"
       x="0"
       y="0" />
    <pattern
       id="EMFhbasepattern-8"
       patternUnits="userSpaceOnUse"
       width="6"
       height="6"
       x="0"
       y="0" />
    <pattern
       id="EMFhbasepattern-4"
       patternUnits="userSpaceOnUse"
       width="6"
       height="6"
       x="0"
       y="0" />
    <pattern
       id="EMFhbasepattern-40"
       patternUnits="userSpaceOnUse"
       width="6"
       height="6"
       x="0"
       y="0" />
    <pattern
       id="EMFhbasepattern-08"
       patternUnits="userSpaceOnUse"
       width="6"
       height="6"
       x="0"
       y="0" />
    <pattern
       id="EMFhbasepattern-04"
       patternUnits="userSpaceOnUse"
       width="6"
       height="6"
       x="0"
       y="0" />
    <pattern
       id="EMFhbasepattern-014"
       patternUnits="userSpaceOnUse"
       width="6"
       height="6"
       x="0"
       y="0" />
    <pattern
       id="EMFhbasepattern-27"
       patternUnits="userSpaceOnUse"
       width="6"
       height="6"
       x="0"
       y="0" />
    <pattern
       id="EMFhbasepattern-09"
       patternUnits="userSpaceOnUse"
       width="6"
       height="6"
       x="0"
       y="0" />
    <pattern
       id="EMFhbasepattern-5"
       patternUnits="userSpaceOnUse"
       width="6"
       height="6"
       x="0"
       y="0" />
    <pattern
       id="EMFhbasepattern-018"
       patternUnits="userSpaceOnUse"
       width="6"
       height="6"
       x="0"
       y="0" />
  </defs>
  <sodipodi:namedview
     id="base"
     pagecolor="#ffffff"
     bordercolor="#666666"
     borderopacity="1.0"
     inkscape:pageopacity="0.0"
     inkscape:pageshadow="2"
     inkscape:zoom="6.2578125"
     inkscape:cx="42.666667"
     inkscape:cy="42.666667"
     inkscape:document-units="pt"
     inkscape:current-layer="layer1"
     showgrid="false"
     units="pt"
     inkscape:window-width="1366"
     inkscape:window-height="705"
     inkscape:window-x="-8"
     inkscape:window-y="-8"
     inkscape:window-maximized="1"
     inkscape:pagecheckerboard="true"
     inkscape:showpageshadow="false"
     inkscape:object-paths="true"
     inkscape:snap-intersection-paths="true"
     inkscape:snap-smooth-nodes="true"
     inkscape:snap-midpoints="true"
     showguides="true"
     inkscape:snap-bbox="true"
     inkscape:bbox-nodes="true"
     inkscape:snap-nodes="false"
     inkscape:snap-global="true"
     inkscape:document-rotation="0">
    <inkscape:grid
       type="xygrid"
       id="grid1378" />
    <sodipodi:guide
       position="0.97013831,21.607643"
       orientation="78.000048,0"
       id="guide1380"
       inkscape:locked="false" />
    <sodipodi:guide
       position="0.97013831,0.97013129"
       orientation="0,78.000005"
       id="guide1382"
       inkscape:locked="false" />
    <sodipodi:guide
       position="21.607639,0.97013129"
       orientation="-78.000048,0"
       id="guide1384"
       inkscape:locked="false" />
    <sodipodi:guide
       position="21.607639,21.607643"
       orientation="0,-78.000005"
       id="guide1386"
       inkscape:locked="false" />
  </sodipodi:namedview>
  <metadata
     id="metadata828">
    <rdf:RDF>
      <cc:Work
         rdf:about="">
        <dc:format>image/svg+xml</dc:format>
        <dc:type
           rdf:resource="http://purl.org/dc/dcmitype/StillImage" />
        <dc:title></dc:title>
      </cc:Work>
    </rdf:RDF>
  </metadata>
  <g
     inkscape:label="Icon"
     inkscape:groupmode="layer"
     id="layer1"
     transform="translate(0,-274.42223)">
    <g
       transform="matrix(1.2584632,0,0,1.2584632,39.020934,-39.011412)"
       style="display:inline;stroke-width:0.79462"
       id="g1767">
      <path
         id="path1418"
         d="m -26.591797,249.87305 c -0.66331,-0.10209 -1.492186,-0.005 -2.152344,0.17187 -0.330376,0.0883 -0.613814,0.19246 -0.826171,0.32813 -0.106179,0.0678 -0.201554,0.14099 -0.267579,0.26172 -0.06602,0.12072 -0.06394,0.31985 0.02148,0.44335 0.891109,1.28838 1.829861,1.81019 2.736328,1.95508 0.906467,0.1449 1.755547,-0.063 2.521484,-0.13867 a 0.26460996,0.26460996 0 0 0 0.214844,-0.15234 l 0.472656,-1.02735 a 0.26460996,0.26460996 0 0 0 -0.05664,-0.30078 c -0.590091,-0.57076 -0.976007,-0.91619 -1.367188,-1.14453 -0.390642,-0.22802 -0.77456,-0.32152 -1.294922,-0.39648 z"
         style="color:#000000;font-style:normal;font-variant:normal;font-weight:normal;font-stretch:normal;font-size:medium;line-height:normal;font-family:sans-serif;font-variant-ligatures:normal;font-variant-position:normal;font-variant-caps:normal;font-variant-numeric:normal;font-variant-alternates:normal;font-variant-east-asian:normal;font-feature-settings:normal;font-variation-settings:normal;text-indent:0;text-align:start;text-decoration:none;text-decoration-line:none;text-decoration-style:solid;text-decoration-color:#000000;letter-spacing:normal;word-spacing:normal;text-transform:none;writing-mode:lr-tb;direction:ltr;text-orientation:mixed;dominant-baseline:auto;baseline-shift:baseline;text-anchor:start;white-space:normal;shape-padding:0;shape-margin:0;inline-size:0;clip-rule:nonzero;display:inline;overflow:visible;visibility:visible;isolation:auto;mix-blend-mode:normal;color-interpolation:sRGB;color-interpolation-filters:linearRGB;solid-color:#000000;solid-opacity:1;vector-effect:none;fill:#50b86b;fill-opacity:1;fill-rule:nonzero;stroke:none;stroke-width:0.420487;stroke-linecap:round;stroke-linejoin:round;stroke-miterlimit:4;stroke-dasharray:none;stroke-dashoffset:0;stroke-opacity:1;color-rendering:auto;image-rendering:auto;shape-rendering:auto;text-rendering:auto;enable-background:accumulate;stop-color:#000000" />
      <path
         id="path1430"
         d="m -26.039062,251.21484 c -0.603074,-0.15951 -1.217391,-0.21192 -1.824219,0.0176 a 0.2645835,0.2645835 0 0 0 -0.154297,0.3418 0.2645835,0.2645835 0 0 0 0.341797,0.1543 c 0.929873,-0.35168 2.040475,0.19688 3.220703,0.61132 a 0.2645835,0.2645835 0 0 0 0.33789,-0.16211 0.2645835,0.2645835 0 0 0 -0.162109,-0.33789 c -0.564989,-0.19839 -1.156692,-0.46548 -1.759765,-0.625 z"
         style="color:#000000;font-style:normal;font-variant:normal;font-weight:normal;font-stretch:normal;font-size:medium;line-height:normal;font-family:sans-serif;font-variant-ligatures:normal;font-variant-position:normal;font-variant-caps:normal;font-variant-numeric:normal;font-variant-alternates:normal;font-variant-east-asian:normal;font-feature-settings:normal;font-variation-settings:normal;text-indent:0;text-align:start;text-decoration:none;text-decoration-line:none;text-decoration-style:solid;text-decoration-color:#000000;letter-spacing:normal;word-spacing:normal;text-transform:none;writing-mode:lr-tb;direction:ltr;text-orientation:mixed;dominant-baseline:auto;baseline-shift:baseline;text-anchor:start;white-space:normal;shape-padding:0;shape-margin:0;inline-size:0;clip-rule:nonzero;display:inline;overflow:visible;visibility:visible;isolation:auto;mix-blend-mode:normal;color-interpolation:sRGB;color-interpolation-filters:linearRGB;solid-color:#000000;solid-opacity:1;vector-effect:none;fill:#349951;fill-opacity:1;fill-rule:nonzero;stroke:none;stroke-width:0.420487;stroke-linecap:round;stroke-linejoin:round;stroke-miterlimit:4;stroke-dasharray:none;stroke-dashoffset:0;stroke-opacity:1;color-rendering:auto;image-rendering:auto;shape-rendering:auto;text-rendering:auto;enable-background:accumulate;stop-color:#000000" />
      <path
         id="path1404"
         d="m -23.128906,250.13477 c -0.204394,0.0761 -0.351528,0.22056 -0.503906,0.38476 -0.589864,0.63565 -1.017504,1.40314 -1.269532,2.23047 a 0.26460996,0.26460996 0 0 0 0.195313,0.33594 l 1.259765,0.28515 a 0.26460996,0.26460996 0 0 0 0.310547,-0.17382 c 0.224777,-0.67795 0.610103,-1.262 1.119141,-1.78711 0.110759,-0.11426 0.178787,-0.26381 0.185547,-0.40821 0.0068,-0.1444 -0.03984,-0.2747 -0.103516,-0.38086 -0.127358,-0.2123 -0.319766,-0.35487 -0.517578,-0.43945 -0.232825,-0.0996 -0.471387,-0.12296 -0.675781,-0.0469 z"
         style="color:#000000;font-style:normal;font-variant:normal;font-weight:normal;font-stretch:normal;font-size:medium;line-height:normal;font-family:sans-serif;font-variant-ligatures:normal;font-variant-position:normal;font-variant-caps:normal;font-variant-numeric:normal;font-variant-alternates:normal;font-variant-east-asian:normal;font-feature-settings:normal;font-variation-settings:normal;text-indent:0;text-align:start;text-decoration:none;text-decoration-line:none;text-decoration-style:solid;text-decoration-color:#000000;letter-spacing:normal;word-spacing:normal;text-transform:none;writing-mode:lr-tb;direction:ltr;text-orientation:mixed;dominant-baseline:auto;baseline-shift:baseline;text-anchor:start;white-space:normal;shape-padding:0;shape-margin:0;inline-size:0;clip-rule:nonzero;display:inline;overflow:visible;visibility:visible;isolation:auto;mix-blend-mode:normal;color-interpolation:sRGB;color-interpolation-filters:linearRGB;solid-color:#000000;solid-opacity:1;vector-effect:none;fill:#9a605a;fill-opacity:1;fill-rule:nonzero;stroke:none;stroke-width:0.420487;stroke-linecap:round;stroke-linejoin:round;stroke-miterlimit:4;stroke-dasharray:none;stroke-dashoffset:0;stroke-opacity:1;color-rendering:auto;image-rendering:auto;shape-rendering:auto;text-rendering:auto;enable-background:accumulate;stop-color:#000000" />
      <path
         d="m -22.801711,250.09226 c -0.112238,-0.009 -0.220768,0.004 -0.321428,0.0408 0.04705,0.0137 0.09417,0.0285 0.141077,0.0486 0.197812,0.0846 0.389923,0.22695 0.517281,0.43925 0.06368,0.10616 0.110153,0.23646 0.103353,0.38086 -0.0068,0.1444 -0.07476,0.29398 -0.185518,0.40824 -0.509038,0.52511 -0.894018,1.10954 -1.118795,1.78749 a 0.26460996,0.26460996 0 0 1 -0.07028,0.10852 l 0.288871,0.0651 a 0.26460996,0.26460996 0 0 0 0.310576,-0.17363 c 0.224776,-0.67795 0.609756,-1.26238 1.118794,-1.78749 0.110759,-0.11426 0.178759,-0.26384 0.185519,-0.40824 0.0068,-0.1444 -0.03968,-0.2747 -0.103353,-0.38086 -0.127358,-0.2123 -0.319469,-0.35467 -0.517281,-0.43925 -0.116413,-0.0498 -0.234523,-0.0806 -0.348816,-0.0894 z"
         style="color:#000000;font-style:normal;font-variant:normal;font-weight:normal;font-stretch:normal;font-size:medium;line-height:normal;font-family:sans-serif;font-variant-ligatures:normal;font-variant-position:normal;font-variant-caps:normal;font-variant-numeric:normal;font-variant-alternates:normal;font-variant-east-asian:normal;font-feature-settings:normal;font-variation-settings:normal;text-indent:0;text-align:start;text-decoration:none;text-decoration-line:none;text-decoration-style:solid;text-decoration-color:#000000;letter-spacing:normal;word-spacing:normal;text-transform:none;writing-mode:lr-tb;direction:ltr;text-orientation:mixed;dominant-baseline:auto;baseline-shift:baseline;text-anchor:start;white-space:normal;shape-padding:0;shape-margin:0;inline-size:0;clip-rule:nonzero;display:inline;overflow:visible;visibility:visible;isolation:auto;mix-blend-mode:normal;color-interpolation:sRGB;color-interpolation-filters:linearRGB;solid-color:#000000;solid-opacity:1;vector-effect:none;fill:#66342d;fill-opacity:1;fill-rule:nonzero;stroke:none;stroke-width:0.420487;stroke-linecap:round;stroke-linejoin:round;stroke-miterlimit:4;stroke-dasharray:none;stroke-dashoffset:0;stroke-opacity:1;color-rendering:auto;image-rendering:auto;shape-rendering:auto;text-rendering:auto;enable-background:accumulate;stop-color:#000000"
         id="path1482" />
      <path
         id="path1389"
         d="m -24.576172,252.56445 c -0.798978,1e-5 -1.479014,0.33291 -1.970703,0.85547 -0.491689,0.52257 -0.803419,1.22855 -0.916016,1.99414 l -0.191406,1.30664 c -0.03268,0.22224 -0.112303,0.36625 -0.234375,0.53125 -0.122072,0.16501 -0.291448,0.34186 -0.460937,0.58789 -0.819241,1.18916 -1.214846,2.25441 -1.214844,3.40235 3e-6,1.82265 1.029114,3.35074 2.492187,4.2207 a 0.26458451,0.26458451 0 0 0 0.128907,0.16602 c 0.05517,0.0299 0.129131,0.019 0.185547,0.0469 0.665817,0.32951 1.389347,0.55469 2.18164,0.55469 0.0022,0 0.0037,-0.002 0.0059,-0.002 0.0015,0 0.0024,0.002 0.0039,0.002 0.792293,0 1.515823,-0.22518 2.18164,-0.55469 0.05642,-0.0279 0.130373,-0.0169 0.185547,-0.0469 a 0.26458451,0.26458451 0 0 0 0.13086,-0.16602 c 1.462299,-0.87015 2.492184,-2.39863 2.492187,-4.2207 2e-6,-1.14794 -0.395603,-2.21319 -1.214844,-3.40235 -0.169489,-0.24603 -0.340818,-0.42288 -0.46289,-0.58789 -0.122072,-0.165 -0.199738,-0.30901 -0.232422,-0.53125 a 0.26461097,0.26461097 0 0 0 0,-0.002 l -0.197266,-1.30664 0.002,0.0391 c -0.0055,-1.59503 -1.29845,-2.88671 -2.894531,-2.88672 z"
         style="color:#000000;font-style:normal;font-variant:normal;font-weight:normal;font-stretch:normal;font-size:medium;line-height:normal;font-family:sans-serif;font-variant-ligatures:normal;font-variant-position:normal;font-variant-caps:normal;font-variant-numeric:normal;font-variant-alternates:normal;font-variant-east-asian:normal;font-feature-settings:normal;font-variation-settings:normal;text-indent:0;text-align:start;text-decoration:none;text-decoration-line:none;text-decoration-style:solid;text-decoration-color:#000000;letter-spacing:normal;word-spacing:normal;text-transform:none;writing-mode:lr-tb;direction:ltr;text-orientation:mixed;dominant-baseline:auto;baseline-shift:baseline;text-anchor:start;white-space:normal;shape-padding:0;shape-margin:0;inline-size:0;clip-rule:nonzero;display:inline;overflow:visible;visibility:visible;isolation:auto;mix-blend-mode:normal;color-interpolation:sRGB;color-interpolation-filters:linearRGB;solid-color:#000000;solid-opacity:1;vector-effect:none;fill:#9ccc65;fill-opacity:1;fill-rule:nonzero;stroke:none;stroke-width:0.420488;stroke-linecap:round;stroke-linejoin:round;stroke-miterlimit:4;stroke-dasharray:none;stroke-dashoffset:0;stroke-opacity:1;color-rendering:auto;image-rendering:auto;shape-rendering:auto;text-rendering:auto;enable-background:accumulate;stop-color:#000000" />
      <path
         d="m -21.631238,255.7591 c -0.08321,0.0421 -0.166125,0.0842 -0.257349,0.12764 -1.371385,0.6523 -2.365025,1.46071 -3.006018,2.57039 -1.498061,2.59343 -0.656759,5.91423 1.858801,7.49515 0.222791,-0.0796 0.440261,-0.17212 0.651123,-0.27647 0.05642,-0.0279 0.130345,-0.017 0.185519,-0.047 a 0.2645845,0.2645845 0 0 0 0.130741,-0.16588 c 1.462299,-0.87015 2.492351,-2.39886 2.492354,-4.22093 2e-6,-1.14794 -0.395671,-2.21322 -1.214912,-3.40238 -0.169489,-0.24603 -0.340949,-0.42255 -0.463021,-0.58756 -0.122072,-0.165 -0.19986,-0.30899 -0.232544,-0.53123 a 0.26461096,0.26461096 0 0 0 0,-0.002 z"
         style="color:#000000;font-style:normal;font-variant:normal;font-weight:normal;font-stretch:normal;font-size:medium;line-height:normal;font-family:sans-serif;font-variant-ligatures:normal;font-variant-position:normal;font-variant-caps:normal;font-variant-numeric:normal;font-variant-alternates:normal;font-variant-east-asian:normal;font-feature-settings:normal;font-variation-settings:normal;text-indent:0;text-align:start;text-decoration:none;text-decoration-line:none;text-decoration-style:solid;text-decoration-color:#000000;letter-spacing:normal;word-spacing:normal;text-transform:none;writing-mode:lr-tb;direction:ltr;text-orientation:mixed;dominant-baseline:auto;baseline-shift:baseline;text-anchor:start;white-space:normal;shape-padding:0;shape-margin:0;inline-size:0;clip-rule:nonzero;display:inline;overflow:visible;visibility:visible;isolation:auto;mix-blend-mode:normal;color-interpolation:sRGB;color-interpolation-filters:linearRGB;solid-color:#000000;solid-opacity:1;vector-effect:none;fill:#74a838;fill-opacity:1;fill-rule:nonzero;stroke:none;stroke-width:0.420488;stroke-linecap:round;stroke-linejoin:round;stroke-miterlimit:4;stroke-dasharray:none;stroke-dashoffset:0;stroke-opacity:1;color-rendering:auto;image-rendering:auto;shape-rendering:auto;text-rendering:auto;enable-background:accumulate;stop-color:#000000"
         id="path1476" />
      <path
         id="path1456"
         d="m -17.769531,253.27539 c -0.687192,0.20683 -1.308602,0.66282 -1.789063,1.26953 l -0.820312,1.03516 c -0.289451,0.36551 -0.762205,0.59341 -1.259766,0.83008 -1.304342,0.62041 -2.179668,1.34377 -2.753906,2.33789 -1.376219,2.3825 -0.557416,5.43701 1.826172,6.8125 2.383589,1.37547 5.438223,0.5583 6.814453,-1.82422 0.582991,-1.00926 0.771091,-2.14873 0.648437,-3.58985 -0.0475,-0.55807 -0.113994,-1.09638 0.05664,-1.51562 l 0.486328,-1.19922 -0.01563,0.0332 c 0.798307,-1.38161 0.323691,-3.14762 -1.058594,-3.94531 -0.691965,-0.39929 -1.447573,-0.45096 -2.134765,-0.24414 z"
         style="color:#000000;font-style:normal;font-variant:normal;font-weight:normal;font-stretch:normal;font-size:medium;line-height:normal;font-family:sans-serif;font-variant-ligatures:normal;font-variant-position:normal;font-variant-caps:normal;font-variant-numeric:normal;font-variant-alternates:normal;font-variant-east-asian:normal;font-feature-settings:normal;font-variation-settings:normal;text-indent:0;text-align:start;text-decoration:none;text-decoration-line:none;text-decoration-style:solid;text-decoration-color:#000000;letter-spacing:normal;word-spacing:normal;text-transform:none;writing-mode:lr-tb;direction:ltr;text-orientation:mixed;dominant-baseline:auto;baseline-shift:baseline;text-anchor:start;white-space:normal;shape-padding:0;shape-margin:0;inline-size:0;clip-rule:nonzero;display:inline;overflow:visible;visibility:visible;isolation:auto;mix-blend-mode:normal;color-interpolation:sRGB;color-interpolation-filters:linearRGB;solid-color:#000000;solid-opacity:1;vector-effect:none;fill:#fff79c;fill-opacity:1;fill-rule:nonzero;stroke:none;stroke-width:0.420488;stroke-linecap:round;stroke-linejoin:round;stroke-miterlimit:4;stroke-dasharray:none;stroke-dashoffset:0;stroke-opacity:1;color-rendering:auto;image-rendering:auto;shape-rendering:auto;text-rendering:auto;enable-background:accumulate;stop-color:#000000" />
      <path
         id="path1441"
         d="m -19.427734,257.65234 c -0.464712,0.0466 -0.940188,0.20837 -1.386719,0.4336 -0.893062,0.45045 -1.696299,1.16709 -2.128906,1.91601 -0.865214,1.49785 -0.350061,3.42239 1.148437,4.28711 1.498497,0.86472 3.421894,0.3494 4.28711,-1.14844 0.432606,-0.74892 0.651942,-1.80442 0.595703,-2.80273 -0.05624,-0.99831 -0.395287,-1.96883 -1.197266,-2.43164 -0.400992,-0.2314 -0.853648,-0.30053 -1.318359,-0.25391 z"
         style="color:#000000;font-style:normal;font-variant:normal;font-weight:normal;font-stretch:normal;font-size:medium;line-height:normal;font-family:sans-serif;font-variant-ligatures:normal;font-variant-position:normal;font-variant-caps:normal;font-variant-numeric:normal;font-variant-alternates:normal;font-variant-east-asian:normal;font-feature-settings:normal;font-variation-settings:normal;text-indent:0;text-align:start;text-decoration:none;text-decoration-line:none;text-decoration-style:solid;text-decoration-color:#000000;letter-spacing:normal;word-spacing:normal;text-transform:none;writing-mode:lr-tb;direction:ltr;text-orientation:mixed;dominant-baseline:auto;baseline-shift:baseline;text-anchor:start;white-space:normal;shape-padding:0;shape-margin:0;inline-size:0;clip-rule:nonzero;display:inline;overflow:visible;visibility:visible;isolation:auto;mix-blend-mode:normal;color-interpolation:sRGB;color-interpolation-filters:linearRGB;solid-color:#000000;solid-opacity:1;vector-effect:none;fill:#9a605a;fill-opacity:1;fill-rule:nonzero;stroke:none;stroke-width:0.420488;stroke-linecap:round;stroke-linejoin:round;stroke-miterlimit:4;stroke-dasharray:none;stroke-dashoffset:0;stroke-opacity:1;color-rendering:auto;image-rendering:auto;shape-rendering:auto;text-rendering:auto;enable-background:accumulate;stop-color:#000000" />
      <path
         id="path1434"
         d="m -17.4375,254.42969 c -0.426602,0.0946 -0.825906,0.34869 -1.109375,0.72265 l -0.789063,1.04102 a 0.26458451,0.26458451 0 0 0 0.05078,0.37109 0.26458451,0.26458451 0 0 0 0.371094,-0.0508 l 0.789062,-1.04101 c 0.422826,-0.55781 1.121755,-0.73389 1.671875,-0.36914 0.550412,0.36489 0.696202,1.1017 0.320313,1.66796 a 0.26461097,0.26461097 0 0 0 -0.0078,0.01 l -0.664063,1.11328 a 0.26458451,0.26458451 0 0 0 0.0918,0.36133 0.26458451,0.26458451 0 0 0 0.363282,-0.0898 l 0.65625,-1.10157 c 0.530258,-0.79881 0.324541,-1.87772 -0.466797,-2.40234 -0.395821,-0.26244 -0.850742,-0.32704 -1.277344,-0.23242 z"
         style="color:#000000;font-style:normal;font-variant:normal;font-weight:normal;font-stretch:normal;font-size:medium;line-height:normal;font-family:sans-serif;font-variant-ligatures:normal;font-variant-position:normal;font-variant-caps:normal;font-variant-numeric:normal;font-variant-alternates:normal;font-variant-east-asian:normal;font-feature-settings:normal;font-variation-settings:normal;text-indent:0;text-align:start;text-decoration:none;text-decoration-line:none;text-decoration-style:solid;text-decoration-color:#000000;letter-spacing:normal;word-spacing:normal;text-transform:none;writing-mode:lr-tb;direction:ltr;text-orientation:mixed;dominant-baseline:auto;baseline-shift:baseline;text-anchor:start;white-space:normal;shape-padding:0;shape-margin:0;inline-size:0;clip-rule:nonzero;display:inline;overflow:visible;visibility:visible;isolation:auto;mix-blend-mode:normal;color-interpolation:sRGB;color-interpolation-filters:linearRGB;solid-color:#000000;solid-opacity:1;vector-effect:none;fill:#fed883;fill-opacity:1;fill-rule:nonzero;stroke:none;stroke-width:0.420488;stroke-linecap:round;stroke-linejoin:round;stroke-miterlimit:4;stroke-dasharray:none;stroke-dashoffset:0;stroke-opacity:1;color-rendering:auto;image-rendering:auto;shape-rendering:auto;text-rendering:auto;enable-background:accumulate;stop-color:#000000" />
      <path
         id="path1379"
         d="m -26.511719,257.07227 a 0.264584,0.264584 0 0 0 -0.261719,0.2207 c -0.02901,0.17164 -0.08337,0.31691 -0.15625,0.43555 a 0.264584,0.264584 0 0 0 0.08594,0.36328 0.264584,0.264584 0 0 0 0.363281,-0.0879 c 0.111723,-0.18188 0.189444,-0.39187 0.228516,-0.62305 a 0.264584,0.264584 0 0 0 -0.216797,-0.30469 0.264584,0.264584 0 0 0 -0.04297,-0.004 z"
         style="color:#000000;font-style:normal;font-variant:normal;font-weight:normal;font-stretch:normal;font-size:medium;line-height:normal;font-family:sans-serif;font-variant-ligatures:normal;font-variant-position:normal;font-variant-caps:normal;font-variant-numeric:normal;font-variant-alternates:normal;font-variant-east-asian:normal;font-feature-settings:normal;font-variation-settings:normal;text-indent:0;text-align:start;text-decoration:none;text-decoration-line:none;text-decoration-style:solid;text-decoration-color:#000000;letter-spacing:normal;word-spacing:normal;text-transform:none;writing-mode:lr-tb;direction:ltr;text-orientation:mixed;dominant-baseline:auto;baseline-shift:baseline;text-anchor:start;white-space:normal;shape-padding:0;shape-margin:0;inline-size:0;clip-rule:nonzero;display:inline;overflow:visible;visibility:visible;isolation:auto;mix-blend-mode:normal;color-interpolation:sRGB;color-interpolation-filters:linearRGB;solid-color:#000000;solid-opacity:1;vector-effect:none;fill:#badb94;fill-opacity:1;fill-rule:nonzero;stroke:none;stroke-width:0.420487;stroke-linecap:round;stroke-linejoin:round;stroke-miterlimit:4;stroke-dasharray:none;stroke-dashoffset:0;stroke-opacity:1;color-rendering:auto;image-rendering:auto;shape-rendering:auto;text-rendering:auto;enable-background:accumulate;stop-color:#000000" />
      <path
         id="path1383"
         d="m -27.279297,258.6543 a 0.264584,0.264584 0 0 0 -0.210937,0.10156 c -0.364731,0.46919 -0.693153,1.00058 -0.822266,1.66797 a 0.264584,0.264584 0 0 0 0.210938,0.30859 0.264584,0.264584 0 0 0 0.308593,-0.20898 c 0.107524,-0.55579 0.380212,-1.00535 0.720703,-1.44336 a 0.264584,0.264584 0 0 0 -0.04687,-0.3711 0.264584,0.264584 0 0 0 -0.160156,-0.0547 z"
         style="color:#000000;font-style:normal;font-variant:normal;font-weight:normal;font-stretch:normal;font-size:medium;line-height:normal;font-family:sans-serif;font-variant-ligatures:normal;font-variant-position:normal;font-variant-caps:normal;font-variant-numeric:normal;font-variant-alternates:normal;font-variant-east-asian:normal;font-feature-settings:normal;font-variation-settings:normal;text-indent:0;text-align:start;text-decoration:none;text-decoration-line:none;text-decoration-style:solid;text-decoration-color:#000000;letter-spacing:normal;word-spacing:normal;text-transform:none;writing-mode:lr-tb;direction:ltr;text-orientation:mixed;dominant-baseline:auto;baseline-shift:baseline;text-anchor:start;white-space:normal;shape-padding:0;shape-margin:0;inline-size:0;clip-rule:nonzero;display:inline;overflow:visible;visibility:visible;isolation:auto;mix-blend-mode:normal;color-interpolation:sRGB;color-interpolation-filters:linearRGB;solid-color:#000000;solid-opacity:1;vector-effect:none;fill:#badb94;fill-opacity:1;fill-rule:nonzero;stroke:none;stroke-width:0.420487;stroke-linecap:round;stroke-linejoin:round;stroke-miterlimit:4;stroke-dasharray:none;stroke-dashoffset:0;stroke-opacity:1;color-rendering:auto;image-rendering:auto;shape-rendering:auto;text-rendering:auto;enable-background:accumulate;stop-color:#000000" />
      <path
         d="m -16.974675,253.15669 c -0.08826,5e-5 -0.176096,0.005 -0.26355,0.0134 0.36301,0.0364 0.726724,0.14874 1.074353,0.34933 1.374327,0.7931 1.849887,2.5432 1.070736,3.92121 l -0.482658,1.19011 c -0.170634,0.41924 -0.104344,0.9576 -0.05684,1.51567 0.122654,1.44112 -0.06555,2.5807 -0.648539,3.58996 -0.87371,1.51256 -2.423881,2.39074 -4.049366,2.48099 1.811481,0.0917 3.610362,-0.8049 4.578533,-2.48099 0.58299,-1.00926 0.771193,-2.14884 0.648539,-3.58996 -0.0475,-0.55807 -0.11379,-1.09643 0.05684,-1.51567 l 0.482658,-1.19011 c 0.77915,-1.37801 0.303591,-3.12811 -1.070736,-3.92121 -0.432478,-0.24955 -0.890012,-0.36303 -1.33997,-0.36277 z"
         style="color:#000000;font-style:normal;font-variant:normal;font-weight:normal;font-stretch:normal;font-size:medium;line-height:normal;font-family:sans-serif;font-variant-ligatures:normal;font-variant-position:normal;font-variant-caps:normal;font-variant-numeric:normal;font-variant-alternates:normal;font-variant-east-asian:normal;font-feature-settings:normal;font-variation-settings:normal;text-indent:0;text-align:start;text-decoration:none;text-decoration-line:none;text-decoration-style:solid;text-decoration-color:#000000;letter-spacing:normal;word-spacing:normal;text-transform:none;writing-mode:lr-tb;direction:ltr;text-orientation:mixed;dominant-baseline:auto;baseline-shift:baseline;text-anchor:start;white-space:normal;shape-padding:0;shape-margin:0;inline-size:0;clip-rule:nonzero;display:inline;overflow:visible;visibility:visible;isolation:auto;mix-blend-mode:normal;color-interpolation:sRGB;color-interpolation-filters:linearRGB;solid-color:#000000;solid-opacity:1;vector-effect:none;fill:#9ccc65;fill-opacity:1;fill-rule:nonzero;stroke:none;stroke-width:0.420488;stroke-linecap:round;stroke-linejoin:round;stroke-miterlimit:4;stroke-dasharray:none;stroke-dashoffset:0;stroke-opacity:1;color-rendering:auto;image-rendering:auto;shape-rendering:auto;text-rendering:auto;enable-background:accumulate;stop-color:#000000"
         id="path1471" />
      <path
         d="m -19.08204,257.63962 c -0.114052,-0.004 -0.229537,0.001 -0.345715,0.0129 -0.09266,0.009 -0.185853,0.0259 -0.279053,0.0439 0.186947,0.0433 0.367789,0.11101 0.538985,0.2098 0.801979,0.46281 1.141103,1.43307 1.197343,2.43138 0.05624,0.99831 -0.163223,2.05401 -0.595829,2.80293 -0.483738,0.83744 -1.298269,1.36712 -2.184363,1.52084 1.255887,0.21151 2.569471,-0.35537 3.242696,-1.52084 0.432606,-0.74892 0.652069,-1.80462 0.59583,-2.80293 -0.05624,-0.99831 -0.395364,-1.96857 -1.197343,-2.43138 -0.300744,-0.17355 -0.630395,-0.25602 -0.972551,-0.26665 z"
         style="color:#000000;font-style:normal;font-variant:normal;font-weight:normal;font-stretch:normal;font-size:medium;line-height:normal;font-family:sans-serif;font-variant-ligatures:normal;font-variant-position:normal;font-variant-caps:normal;font-variant-numeric:normal;font-variant-alternates:normal;font-variant-east-asian:normal;font-feature-settings:normal;font-variation-settings:normal;text-indent:0;text-align:start;text-decoration:none;text-decoration-line:none;text-decoration-style:solid;text-decoration-color:#000000;letter-spacing:normal;word-spacing:normal;text-transform:none;writing-mode:lr-tb;direction:ltr;text-orientation:mixed;dominant-baseline:auto;baseline-shift:baseline;text-anchor:start;white-space:normal;shape-padding:0;shape-margin:0;inline-size:0;clip-rule:nonzero;display:inline;overflow:visible;visibility:visible;isolation:auto;mix-blend-mode:normal;color-interpolation:sRGB;color-interpolation-filters:linearRGB;solid-color:#000000;solid-opacity:1;vector-effect:none;fill:#66342d;fill-opacity:1;fill-rule:nonzero;stroke:none;stroke-width:0.420488;stroke-linecap:round;stroke-linejoin:round;stroke-miterlimit:4;stroke-dasharray:none;stroke-dashoffset:0;stroke-opacity:1;color-rendering:auto;image-rendering:auto;shape-rendering:auto;text-rendering:auto;enable-background:accumulate;stop-color:#000000"
         id="path1749" />
    </g>
  </g>
</svg>
