<?xml version="1.0" encoding="UTF-8" standalone="no"?>
<!-- Created with Inkscape (http://www.inkscape.org/) -->

<svg
   width="64pt"
   height="64pt"
   viewBox="0 0 22.577778 22.577778"
   version="1.1"
   id="svg831"
   inkscape:version="1.1.1 (3bf5ae0d25, 2021-09-20)"
   sodipodi:docname="Export - Unblash - 64px.svg"
   inkscape:export-filename="C:\Users\User\Desktop\CARLOS PROJECT\2. FEBRUARI 1\DONE\13 - Pineapple.png"
   inkscape:export-xdpi="576"
   inkscape:export-ydpi="576"
   xmlns:inkscape="http://www.inkscape.org/namespaces/inkscape"
   xmlns:sodipodi="http://sodipodi.sourceforge.net/DTD/sodipodi-0.dtd"
   xmlns="http://www.w3.org/2000/svg"
   xmlns:svg="http://www.w3.org/2000/svg"
   xmlns:rdf="http://www.w3.org/1999/02/22-rdf-syntax-ns#"
   xmlns:cc="http://creativecommons.org/ns#"
   xmlns:dc="http://purl.org/dc/elements/1.1/">
  <defs
     id="defs825">
    <pattern
       id="EMFhbasepattern"
       patternUnits="userSpaceOnUse"
       width="6"
       height="6"
       x="0"
       y="0" />
    <pattern
       id="EMFhbasepattern-9"
       patternUnits="userSpaceOnUse"
       width="6"
       height="6"
       x="0"
       y="0" />
    <pattern
       id="EMFhbasepattern-0"
       patternUnits="userSpaceOnUse"
       width="6"
       height="6"
       x="0"
       y="0" />
    <pattern
       id="EMFhbasepattern-7"
       patternUnits="userSpaceOnUse"
       width="6"
       height="6"
       x="0"
       y="0" />
    <pattern
       id="EMFhbasepattern-2"
       patternUnits="userSpaceOnUse"
       width="6"
       height="6"
       x="0"
       y="0" />
    <pattern
       id="EMFhbasepattern-98"
       patternUnits="userSpaceOnUse"
       width="6"
       height="6"
       x="0"
       y="0" />
    <pattern
       id="EMFhbasepattern-6"
       patternUnits="userSpaceOnUse"
       width="6"
       height="6"
       x="0"
       y="0" />
    <pattern
       id="EMFhbasepattern-01"
       patternUnits="userSpaceOnUse"
       width="6"
       height="6"
       x="0"
       y="0" />
    <pattern
       id="EMFhbasepattern-07"
       patternUnits="userSpaceOnUse"
       width="6"
       height="6"
       x="0"
       y="0" />
    <pattern
       id="EMFhbasepattern-8"
       patternUnits="userSpaceOnUse"
       width="6"
       height="6"
       x="0"
       y="0" />
    <pattern
       id="EMFhbasepattern-4"
       patternUnits="userSpaceOnUse"
       width="6"
       height="6"
       x="0"
       y="0" />
    <pattern
       id="EMFhbasepattern-40"
       patternUnits="userSpaceOnUse"
       width="6"
       height="6"
       x="0"
       y="0" />
    <pattern
       id="EMFhbasepattern-08"
       patternUnits="userSpaceOnUse"
       width="6"
       height="6"
       x="0"
       y="0" />
    <pattern
       id="EMFhbasepattern-04"
       patternUnits="userSpaceOnUse"
       width="6"
       height="6"
       x="0"
       y="0" />
    <pattern
       id="EMFhbasepattern-014"
       patternUnits="userSpaceOnUse"
       width="6"
       height="6"
       x="0"
       y="0" />
    <pattern
       id="EMFhbasepattern-27"
       patternUnits="userSpaceOnUse"
       width="6"
       height="6"
       x="0"
       y="0" />
    <pattern
       id="EMFhbasepattern-09"
       patternUnits="userSpaceOnUse"
       width="6"
       height="6"
       x="0"
       y="0" />
    <pattern
       id="EMFhbasepattern-5"
       patternUnits="userSpaceOnUse"
       width="6"
       height="6"
       x="0"
       y="0" />
    <pattern
       id="EMFhbasepattern-018"
       patternUnits="userSpaceOnUse"
       width="6"
       height="6"
       x="0"
       y="0" />
  </defs>
  <sodipodi:namedview
     id="base"
     pagecolor="#ffffff"
     bordercolor="#666666"
     borderopacity="1.0"
     inkscape:pageopacity="0.0"
     inkscape:pageshadow="2"
     inkscape:zoom="9.1757813"
     inkscape:cx="42.612175"
     inkscape:cy="42.666667"
     inkscape:document-units="pt"
     inkscape:current-layer="svg831"
     showgrid="false"
     units="pt"
     inkscape:window-width="1920"
     inkscape:window-height="1001"
     inkscape:window-x="-9"
     inkscape:window-y="41"
     inkscape:window-maximized="1"
     inkscape:pagecheckerboard="true"
     inkscape:showpageshadow="false"
     inkscape:object-paths="true"
     inkscape:snap-intersection-paths="true"
     inkscape:snap-smooth-nodes="true"
     inkscape:snap-midpoints="true"
     showguides="true"
     inkscape:snap-bbox="true"
     inkscape:bbox-nodes="true"
     inkscape:snap-nodes="false"
     inkscape:snap-global="true">
    <inkscape:grid
       type="xygrid"
       id="grid1378" />
    <sodipodi:guide
       position="0.97013831,21.607643"
       orientation="78.000048,0"
       id="guide1380"
       inkscape:locked="false" />
    <sodipodi:guide
       position="0.97013831,0.97013129"
       orientation="0,78.000005"
       id="guide1382"
       inkscape:locked="false" />
    <sodipodi:guide
       position="21.607639,0.97013129"
       orientation="-78.000048,0"
       id="guide1384"
       inkscape:locked="false" />
    <sodipodi:guide
       position="21.607639,21.607643"
       orientation="0,-78.000005"
       id="guide1386"
       inkscape:locked="false" />
  </sodipodi:namedview>
  <metadata
     id="metadata828">
    <rdf:RDF>
      <cc:Work
         rdf:about="">
        <dc:format>image/svg+xml</dc:format>
        <dc:type
           rdf:resource="http://purl.org/dc/dcmitype/StillImage" />
      </cc:Work>
    </rdf:RDF>
  </metadata>
  <g
     inkscape:label="Icon"
     inkscape:groupmode="layer"
     id="layer1"
     transform="translate(0,-274.42223)" />
  <g
     id="g18293"
     style="display:inline;stroke-width:0.794986"
     transform="matrix(1.2578832,0,0,1.2578832,77.376893,-351.65214)">
    <path
       style="color:#000000;fill:#349951;fill-opacity:1;stroke-width:0.794986;stroke-linecap:round;stroke-linejoin:round;-inkscape-stroke:none"
       d="m -54.941409,282.88672 c 0.04044,-0.0467 0.06324,-0.10617 0.06445,-0.16797 0.01748,-0.84232 -0.140371,-1.44884 -0.6875,-2.26953 -0.189192,-0.1702 -0.261295,-0.11599 -0.4414,0 -0.549586,0.82438 -0.685547,1.4447 -0.685547,2.26367 -1.82e-4,0.0638 0.02271,0.12555 0.06445,0.17383 z"
       id="path124406"
       sodipodi:nodetypes="ccccccc" />
    <path
       id="path150650"
       style="color:#000000;fill:#26783f;fill-opacity:1;stroke-width:0.794986;stroke-linecap:round;stroke-linejoin:round;-inkscape-stroke:none"
       d="m -56.162465,283.24215 c 0.135905,-0.90783 0.20206,-1.942 0.852662,-2.37505 -0.07359,-0.13423 -0.158009,-0.27293 -0.254765,-0.41806 -0.125022,-0.17999 -0.348118,-0.13622 -0.441317,3e-5 -0.549587,0.82438 -0.685747,1.44497 -0.685747,2.26394 z"
       sodipodi:nodetypes="cccccc" />
    <path
       style="color:#000000;fill:#50b86b;fill-opacity:1;stroke-width:0.794986;stroke-linecap:round;stroke-linejoin:round;-inkscape-stroke:none"
       d="m -52.875,282.18359 c -1.083767,0 -2.173518,0.12972 -3.027344,0.52344 a 0.26460996,0.26460996 0 0 0 -0.07422,0.42969 l 1.189453,1.15625 a 0.26460996,0.26460996 0 0 0 0.394531,-0.0312 c 0.362194,-0.48203 1.022267,-0.94414 1.705078,-1.62695 a 0.26460996,0.26460996 0 0 0 -0.1875,-0.45118 z"
       id="path124214" />
    <path
       id="path149395"
       style="color:#000000;fill:#349951;fill-opacity:1;stroke-width:0.794986;stroke-linecap:round;stroke-linejoin:round;-inkscape-stroke:none"
       d="m -55.902533,282.70681 c -0.168681,0.0777 -0.206964,0.30041 -0.0739,0.42995 l 0.485757,0.47232 c -0.07835,-0.13465 -0.024,-0.30751 0.117305,-0.3731 0.741273,-0.34182 1.660705,-0.48402 2.599325,-0.51574 0.02881,-0.0281 0.05739,-0.0564 0.0863,-0.0853 0.165696,-0.16672 0.04798,-0.45059 -0.187068,-0.45114 -1.259317,-0.006 -2.187133,0.14855 -3.027719,0.52301 z"
       sodipodi:nodetypes="cccccccc" />
    <path
       style="color:#000000;fill:#50b86b;fill-opacity:1;stroke-width:0.794986;stroke-linecap:round;stroke-linejoin:round;-inkscape-stroke:none"
       d="m -58.695312,282.18359 a 0.26460996,0.26460996 0 0 0 -0.1875,0.45118 c 0.63657,0.63657 1.146197,1.07333 1.445312,1.52343 l 0.103516,1.65039 a 0.26460996,0.26460996 0 0 0 0.335937,0.23828 l 2.876953,-0.80078 a 0.26460996,0.26460996 0 0 0 0.169922,-0.36328 l -0.392578,-0.8789 c -3.42e-4,-8.9e-4 -0.0016,-0.001 -0.002,-0.002 -0.281666,-0.72503 -0.935434,-1.18385 -1.716797,-1.45312 -0.782316,-0.26961 -1.710331,-0.36524 -2.632812,-0.36524 z"
       id="path124022" />
    <path
       style="color:#000000;fill:#50b86b;stroke-width:0.794986;stroke-linecap:round;stroke-linejoin:round;-inkscape-stroke:none"
       d="m -55.535156,286.85742 -0.06055,-2.23633 c -0.85898,-0.88078 -2.389559,-1.11523 -3.892577,-1.11523 -0.235296,1.4e-4 -0.353393,0.28431 -0.1875,0.45117 0.767231,0.74625 1.761454,1.57011 1.773437,2.57227 z"
       id="path123830"
       sodipodi:nodetypes="cccccc" />
    <path
       id="path145042"
       style="color:#000000;fill:#349951;fill-opacity:1;stroke-width:0.794986;stroke-linecap:round;stroke-linejoin:round;-inkscape-stroke:none"
       d="m -59.48836,283.50573 c -0.235291,9e-5 -0.353441,0.28423 -0.187587,0.45113 0.172905,0.1729 0.336725,0.3304 0.490927,0.47853 -0.105282,-0.17591 0.02082,-0.39955 0.225827,-0.4005 1.266245,0 2.552274,0.16661 3.439583,0.74569 l -0.0021,-0.0129 c -0.0084,-0.0555 -0.03431,-0.10693 -0.0739,-0.14677 -0.858981,-0.88078 -2.389767,-1.11517 -3.892786,-1.11517 z"
       sodipodi:nodetypes="ccccccccc" />
    <path
       style="color:#000000;fill:#50b86b;stroke-width:0.794986;stroke-linecap:round;stroke-linejoin:round;-inkscape-stroke:none"
       d="m -52.080078,283.50586 c -1.904788,-0.0251 -4.453143,0.69199 -4.498047,2.64648 -2.25e-4,0.13012 0.09418,0.24109 0.222656,0.26172 l 2.38086,0.37696 c 0.161029,0.0259 0.306929,-0.0986 0.30664,-0.26172 0.07776,-1.18895 1.083573,-1.88323 1.775391,-2.57227 0.165893,-0.16686 0.0478,-0.45103 -0.1875,-0.45117 z"
       id="path123638"
       sodipodi:nodetypes="ccccccc" />
    <path
       id="path146396"
       style="color:#000000;fill:#349951;fill-opacity:1;stroke-width:0.794986;stroke-linecap:round;stroke-linejoin:round;-inkscape-stroke:none"
       d="m -52.080026,283.50573 c -1.905072,-0.0251 -4.446771,0.42005 -4.497917,2.64686 -1.06e-4,0.13005 0.09431,0.2409 0.222726,0.26149 l 0.315743,0.0501 c 0.470217,-2.35622 2.46723,-2.35982 4.061251,-2.42156 0.02848,-0.0281 0.05684,-0.0568 0.08578,-0.0858 0.148966,-0.13075 0.08204,-0.44536 -0.187583,-0.45109 z"
       sodipodi:nodetypes="ccccccc" />
    <path
       style="color:#000000;fill:#ffa61a;stroke-width:0.794986;stroke-linecap:round;stroke-linejoin:round;-inkscape-stroke:none"
       d="m -56.181641,285.88672 c -1.188883,0 -2.200561,0.63691 -2.890625,1.625 -0.690063,0.98808 -1.078125,2.3273 -1.078125,3.79883 2e-6,1.47152 0.388062,2.81269 1.078125,3.80078 0.690064,0.98808 1.701743,1.625 2.890625,1.625 h 0.792969 c 1.188882,0 2.202515,-0.63692 2.892578,-1.625 0.690063,-0.98809 1.076171,-2.32926 1.076172,-3.80078 10e-7,-1.47153 -0.386108,-2.81075 -1.076172,-3.79883 -0.690063,-0.98809 -1.703694,-1.625 -2.892578,-1.625 z"
       id="path122295" />
    <path
       id="path5670"
       style="color:#000000;fill:#e05e10;stroke-width:3.00467;stroke-linecap:round;stroke-linejoin:round;-inkscape-stroke:none"
       d="m -207.71094,44.466797 -2.34179,2.339844 -4.24024,-4.240235 4.24024,-4.238281 4.51367,4.509766 2.46679,-0.183594 c 2.58585,-2.579516 5.1661,-5.164628 7.74805,-7.748047 -0.20005,-0.733773 -0.42752,-1.448164 -0.68555,-2.138672 -0.90952,0.90884 -1.81933,1.817382 -2.72851,2.726563 l -4.24024,-4.240235 c 1.31589,-1.315624 2.6317,-2.631325 3.94727,-3.947265 -0.41984,-0.530072 -0.86659,-1.027599 -1.33789,-1.490235 -1.34115,1.341146 -2.68229,2.682293 -4.02344,4.023438 l -4.24609,-4.244141 c 1.00586,-1.005861 2.01172,-2.011719 3.01758,-3.017578 -0.74843,-0.240052 -1.52528,-0.408849 -2.32618,-0.5 -2.5278,2.527801 -4.9817,4.981696 -7.76171,7.761719 -1.592,-1.592251 -3.18612,-3.182376 -4.7793,-4.773438 -0.50413,0.42645 -0.98371,0.89287 -1.4375,1.392578 l 4.79883,4.798828 -4.23633,4.238282 c -1.28321,-1.283202 -2.56641,-2.566406 -3.84961,-3.84961 -0.28736,0.659196 -0.54778,1.342009 -0.7793,2.046875 1.07184,1.072041 2.1429,2.144858 3.21485,3.216797 l -4.2461,4.242188 -0.27344,-0.273438 c -0.0706,1.153137 -0.0357,2.295093 0.008,3.369141 l 0.26758,-0.267578 4.24414,4.24414 c -1.06055,1.060544 -2.1211,2.121094 -3.18164,3.181641 0.23411,0.702744 0.49733,1.384231 0.7871,2.041016 1.26971,-1.269355 2.53862,-2.539517 3.8086,-3.808594 l 4.23828,4.238281 c -1.5789,1.577996 -3.1576,3.156207 -4.73633,4.734375 0.45661,0.496864 0.93846,0.959687 1.44531,1.382813 1.56844,-1.56763 3.13629,-3.135849 4.70508,-4.703125 l 4.2461,4.246093 c -1.07878,1.078775 -2.15755,2.157552 -3.23633,3.236329 0.76342,0.15018 1.55116,0.230468 2.36133,0.230468 h 0.21093 c 3.15997,-3.110648 6.27276,-5.99473 9.80664,-9.271484 0.4045,-0.373725 0.4307,-1.004159 0.0586,-1.410156 -0.37449,-0.409658 -1.01096,-0.435962 -1.41797,-0.05859 l -6.3457,5.884766 -4.27149,-4.271485 7.99805,-7.992187 z m -2.33984,-17.458985 4.24414,4.246094 -4.24414,4.244141 -4.2461,-4.244141 z m 5.6582,5.660157 4.24024,4.240234 -4.24414,4.244141 -4.24024,-4.240235 z m -11.32031,0.002 4.24609,4.24414 -4.24023,4.238282 -4.24414,-4.244141 z m -5.65234,5.652344 4.24414,4.24414 -4.24219,4.246094 -4.2461,-4.246094 z m 5.6582,5.658203 4.24023,4.240234 -4.24414,4.244141 -4.24023,-4.240235 z"
       transform="matrix(0.26458334,0,0,0.26458334,0,280.06666)"
       sodipodi:nodetypes="ccccccccccccccccccccccccccccccccccccccsccccccccccccccccccccccccccccccccc" />
    <path
       id="path154774"
       style="fill:#ff8c1a;fill-opacity:1;stroke-width:3.00467;stroke-linecap:round;stroke-linejoin:round"
       d="m -209.74219,47.582031 c 0,1.680907 0.67073,3.297655 1.86133,4.488281 1.04805,0.959093 2.49513,2.260669 2.74609,3.197266 l 1.09961,3.314453 c -1e-5,0.0026 -1e-5,0.0052 0,0.0078 0.30756,0.92268 0.87342,1.70663 1.60157,2.283203 1.53956,-1.03114 2.89579,-2.397074 4.02343,-4.011719 2.60812,-3.734513 4.06641,-8.803584 4.06641,-14.365234 0,-0.821394 -0.033,-1.63082 -0.0957,-2.427735 h -12.36328 c -1.53202,-0.0017 -2.93402,1.389428 -2.93946,2.921875 z"
       transform="matrix(0.26458334,0,0,0.26458334,0,280.06666)"
       sodipodi:nodetypes="ccccccsscccc" />
    <path
       id="path156577"
       style="color:#000000;fill:#bf5110;fill-opacity:1;stroke-width:3.00467;stroke-linecap:round;stroke-linejoin:round;-inkscape-stroke:none"
       d="m -206.80273,40.068359 c -0.42354,-4.59e-4 -0.83599,0.108931 -1.21289,0.294922 l 2.47656,2.47461 2.46679,-0.183594 c 0.86304,-0.860923 1.72388,-1.724039 2.58594,-2.585938 h -2.82617 l -1.08398,1.083985 -1.08399,-1.083985 h -1.31641 z m -0.20118,4.103516 c -0.26548,5.58e-4 -0.51985,0.10666 -0.70703,0.294922 l -2.03125,2.029297 v 1.085937 c 0,0.52592 0.0647,1.046556 0.19141,1.548828 l 3.25,-3.246093 c 0.39303,-0.39095 0.39303,-1.027019 0,-1.417969 -0.18623,-0.187309 -0.439,-0.293332 -0.70313,-0.294922 z m 4.04297,7.826172 c -0.2568,-0.01061 -0.5172,0.07694 -0.7207,0.265625 l -2.08594,1.935547 c 0.50868,0.593246 0.66561,1.166989 0.9082,1.896484 0.84313,-0.784441 1.64815,-1.539001 2.53711,-2.363281 0.4045,-0.373725 0.4307,-1.004159 0.0586,-1.410156 -0.18725,-0.204829 -0.44046,-0.313607 -0.69727,-0.324219 z"
       transform="matrix(0.26458334,0,0,0.26458334,0,280.06666)"
       sodipodi:nodetypes="sccccccccscccsccccscccccs" />
    <path
       style="color:#000000;fill:#fed825;stroke-width:0.794986;stroke-linecap:round;stroke-linejoin:round;-inkscape-stroke:none"
       d="m -54.716797,291.17969 c -0.14617,-5.6e-4 -0.265107,0.1175 -0.265625,0.26367 v 1.21289 c 0,0.30965 0.122845,0.60721 0.341797,0.82617 0.344438,0.30361 0.673221,0.66777 0.849609,1.04492 L -53.5,295.40625 c 0.106355,0.31907 0.407813,0.53516 0.744141,0.53516 0.486876,-0.0262 1.011127,-0.0139 1.429687,0.13867 l 0.72461,0.36328 c 0.407397,0.2037 0.887524,0.2037 1.294921,0 0.414794,-0.24012 0.879774,-0.45321 1.314454,-0.50195 h 0.83789 c 0.336328,0 0.637788,-0.21609 0.744141,-0.53516 l 0.292969,-0.87891 c 0.175109,-0.44575 0.505,-0.70226 0.847656,-1.04492 0.218967,-0.21896 0.341798,-0.51652 0.341797,-0.82617 v -1.21289 c -5.16e-4,-0.14541 -0.118264,-0.26316 -0.263672,-0.26367 -3.17513,0 -6.350261,0 -9.525391,0 z"
       id="path122670"
       sodipodi:nodetypes="ccsccccccccssccsccc" />
    <path
       id="path122862"
       style="color:#000000;fill:#fee881;stroke-width:3.00467;stroke-linecap:round;stroke-linejoin:round;-inkscape-stroke:none"
       d="m -201.93945,42.001953 c 0,1.488932 0,2.977865 0,4.466797 0,5.630778 5.7566,10.533203 13.13281,10.533203 7.37621,0 13.13279,-4.902425 13.13281,-10.533203 0,-1.488932 0,-2.977865 0,-4.466797 -8.75521,0 -17.51041,0 -26.26562,0 z"
       transform="matrix(0.26458334,0,0,0.26458334,0,280.06666)"
       sodipodi:nodetypes="ccsccc" />
    <path
       id="path11158"
       style="color:#000000;fill:#e05e10;stroke-width:3.00467;stroke-linecap:round;stroke-linejoin:round;-inkscape-stroke:none"
       d="m -196.57227,42.001953 v 0.996094 c 0.12754,4.69395 3.3807,7.01067 7.53711,6.998047 4.15641,-0.01262 7.95288,-2.686014 8.00196,-6.998047 v -0.996094 h -2 v 0.996094 c -0.15997,3.653615 -2.92199,4.971487 -6.00196,5.005859 -3.07997,0.03437 -5.51171,-1.91857 -5.53711,-5.005859 v -0.996094 z"
       transform="matrix(0.26458334,0,0,0.26458334,0,280.06666)"
       sodipodi:nodetypes="cczcccczccc" />
    <path
       id="path133907"
       style="color:#000000;fill:#ff8c1a;fill-opacity:1;stroke-width:0.794986;stroke-linecap:round;stroke-linejoin:round;-inkscape-stroke:none"
       d="m -56.181584,285.88698 c -1.188884,0 -2.200717,0.63661 -2.890779,1.6247 -0.690065,0.98808 -1.077971,2.32721 -1.077971,3.79874 0,1.47152 0.387906,2.81271 1.077971,3.8008 0.223295,0.31973 0.480602,0.60272 0.76636,0.83923 -0.08264,-0.099 -0.162002,-0.2024 -0.237193,-0.31006 -0.690066,-0.98809 -1.077971,-2.32928 -1.077971,-3.8008 0,-1.47153 0.387905,-2.81066 1.077971,-3.79874 0.690062,-0.98809 1.701895,-1.62471 2.890779,-1.62471 h 0.792715 c 0.804752,0 1.528848,0.292 2.127002,0.78704 -0.676212,-0.8098 -1.59639,-1.3162 -2.656168,-1.3162 z" />
    <path
       id="path137550"
       style="color:#000000;fill:#bf5110;fill-opacity:1;stroke-width:3.00467;stroke-linecap:round;stroke-linejoin:round;-inkscape-stroke:none"
       d="m -209.86719,23.998047 c 0.92781,-0.0016 1.91755,-2.81e-4 2.82227,0.0039 l 1.42383,-1.423828 c -0.005,-0.0014 -0.009,-0.0025 -0.0137,-0.0039 -0.75458,-0.258725 -1.59715,-0.415539 -2.31271,-0.496161 z m -10.64059,1.085939 c -0.51689,0.424859 -0.9744,0.911158 -1.41801,1.375004 l 1.99805,1.998047 c 0.45417,-0.499986 0.93679,-0.964039 1.4414,-1.390625 z m 19.9238,0.947264 c 0.43193,0.281199 0.84913,0.588182 1.25195,0.919922 -0.30811,-0.394334 -0.69808,-0.784603 -1.03709,-1.134768 z m -24.62891,5.615234 c -0.30681,0.687848 -0.54948,1.387167 -0.7793,2.046875 0.66661,0.66673 1.3336,1.333069 2,2 0.23148,-0.704878 0.49195,-1.387668 0.7793,-2.046875 -0.66667,-0.666666 -1.33334,-1.333332 -2,-2 z m -1.81055,9.50586 -0.27344,-0.273438 c -0.0706,1.153135 -0.0358,2.29509 0.008,3.369141 l 0.26758,-0.267578 1.70507,1.705078 c -0.0461,-0.951723 -0.0113,-1.923349 0.0196,-2.806641 l -0.3125,-0.3125 0.35352,-0.353515 c 0.0823,-1.111205 0.22426,-2.197926 0.42383,-3.25 z m 2.23241,9.085937 -1.16796,1.167969 c 0.22493,0.705158 0.51209,1.383051 0.7871,2.041016 0.3119,-0.311806 0.62373,-0.623672 0.93555,-0.935547 -0.21518,-0.737655 -0.40109,-1.495918 -0.55469,-2.273438 z m 3.18573,8.117204 -1.8e-4,-1.6e-5 c -0.0853,0.08527 -0.17056,0.170588 -0.25586,0.255859 0.46662,0.517311 1.0307,1.04268 1.44531,1.382816 -0.4256,-0.535881 -0.84944,-1.149584 -1.18927,-1.638659 z"
       transform="matrix(0.26458334,0,0,0.26458334,0,280.06666)"
       sodipodi:nodetypes="ccccccccccccccccccccccccccccccsccssccccc" />
    <path
       id="path147729"
       style="color:#000000;fill:#349951;fill-opacity:1;stroke-width:0.794986;stroke-linecap:round;stroke-linejoin:round;-inkscape-stroke:none"
       d="m -58.695126,282.18333 v 5.1e-4 c -0.235297,9e-5 -0.353449,0.28424 -0.187587,0.45114 0.174551,0.17455 0.338222,0.33272 0.491961,0.48162 -0.108725,-0.17614 0.01781,-0.40329 0.224793,-0.40359 v -5.2e-4 c 0.92248,0 1.85008,0.0958 2.632398,0.36536 0.34899,0.12026 0.672481,0.27838 0.948777,0.4811 -0.338251,-0.47582 -0.869445,-0.80057 -1.477944,-1.01027 -0.782317,-0.26961 -1.709917,-0.36535 -2.632398,-0.36535 z"
       sodipodi:nodetypes="ccccccscsc" />
  </g>
</svg>
