<?xml version="1.0" encoding="UTF-8" standalone="no"?><svg viewBox="0 0 64 64" xmlns="http://www.w3.org/2000/svg" xmlns:xlink="http://www.w3.org/1999/xlink"><style>:root>svg{display:none}:root>svg:target{display:block}</style><svg viewBox="0 0 22.578 22.578" id="avocado_fruit_food_icon_218350" xmlns="http://www.w3.org/2000/svg"><g stroke-width=".795" color="#000" font-weight="400" font-family="sans-serif"><path d="M5.556 1.022c-.835-.128-1.878-.006-2.709.217-.415.11-.772.242-1.04.413a.907.907 0 00-.336.329.582.582 0 00.027.558C2.62 4.16 3.801 4.817 4.942 4.999c1.14.183 2.209-.079 3.173-.174a.333.333 0 00.27-.192L8.98 3.34a.333.333 0 00-.071-.378c-.743-.719-1.229-1.153-1.72-1.44-.492-.288-.976-.405-1.63-.5z" style="line-height:normal;font-variant-ligatures:normal;font-variant-position:normal;font-variant-caps:normal;font-variant-numeric:normal;font-variant-alternates:normal;font-variant-east-asian:normal;font-feature-settings:normal;font-variation-settings:normal;text-indent:0;text-align:start;text-decoration-line:none;text-decoration-style:solid;text-decoration-color:#000;text-transform:none;text-orientation:mixed;white-space:normal;shape-padding:0;shape-margin:0;inline-size:0;isolation:auto;mix-blend-mode:normal;solid-color:#000;solid-opacity:1" overflow="visible" fill="#50b86b"/><path d="M6.252 2.711c-.76-.2-1.532-.267-2.296.022a.333.333 0 00-.194.43.333.333 0 00.43.194c1.17-.442 2.568.248 4.053.77a.333.333 0 00.425-.204.333.333 0 00-.204-.425c-.71-.25-1.455-.586-2.214-.787z" style="line-height:normal;font-variant-ligatures:normal;font-variant-position:normal;font-variant-caps:normal;font-variant-numeric:normal;font-variant-alternates:normal;font-variant-east-asian:normal;font-feature-settings:normal;font-variation-settings:normal;text-indent:0;text-align:start;text-decoration-line:none;text-decoration-style:solid;text-decoration-color:#000;text-transform:none;text-orientation:mixed;white-space:normal;shape-padding:0;shape-margin:0;inline-size:0;isolation:auto;mix-blend-mode:normal;solid-color:#000;solid-opacity:1" overflow="visible" fill="#349951"/><path d="M9.914 1.352c-.257.096-.442.277-.634.484a7.205 7.205 0 00-1.598 2.807.333.333 0 00.246.423l1.585.359a.333.333 0 00.391-.22c.283-.852.768-1.587 1.409-2.248a.812.812 0 00.233-.514.855.855 0 00-.13-.48 1.385 1.385 0 00-.651-.552c-.293-.126-.594-.155-.85-.06z" style="line-height:normal;font-variant-ligatures:normal;font-variant-position:normal;font-variant-caps:normal;font-variant-numeric:normal;font-variant-alternates:normal;font-variant-east-asian:normal;font-feature-settings:normal;font-variation-settings:normal;text-indent:0;text-align:start;text-decoration-line:none;text-decoration-style:solid;text-decoration-color:#000;text-transform:none;text-orientation:mixed;white-space:normal;shape-padding:0;shape-margin:0;inline-size:0;isolation:auto;mix-blend-mode:normal;solid-color:#000;solid-opacity:1" overflow="visible" fill="#9a605a"/><path d="M10.326 1.298a.95.95 0 00-.405.052 1.384 1.384 0 01.829.614c.08.133.138.297.13.479a.812.812 0 01-.234.514c-.64.66-1.125 1.396-1.408 2.25a.333.333 0 01-.088.136l.364.082a.333.333 0 00.39-.219c.283-.853.768-1.589 1.408-2.25a.812.812 0 00.234-.513.855.855 0 00-.13-.48 1.384 1.384 0 00-.651-.552 1.396 1.396 0 00-.44-.113z" style="line-height:normal;font-variant-ligatures:normal;font-variant-position:normal;font-variant-caps:normal;font-variant-numeric:normal;font-variant-alternates:normal;font-variant-east-asian:normal;font-feature-settings:normal;font-variation-settings:normal;text-indent:0;text-align:start;text-decoration-line:none;text-decoration-style:solid;text-decoration-color:#000;text-transform:none;text-orientation:mixed;white-space:normal;shape-padding:0;shape-margin:0;inline-size:0;isolation:auto;mix-blend-mode:normal;solid-color:#000;solid-opacity:1" overflow="visible" fill="#66342d"/><path d="M8.093 4.41a3.358 3.358 0 00-2.48 1.076c-.62.658-1.011 1.546-1.153 2.51L4.219 9.64c-.041.28-.141.46-.295.668-.154.208-.367.43-.58.74-1.031 1.497-1.529 2.837-1.529 4.282 0 2.294 1.295 4.217 3.136 5.312a.333.333 0 00.163.209c.07.037.162.023.233.059.838.414 1.749.698 2.746.698.002 0 .004-.003.007-.003.002 0 .003.003.005.003.997 0 1.908-.284 2.746-.698.07-.036.164-.022.233-.06a.333.333 0 00.165-.208c1.84-1.095 3.136-3.019 3.136-5.312 0-1.445-.498-2.785-1.529-4.282-.213-.31-.429-.532-.582-.74a1.37 1.37 0 01-.293-.668.333.333 0 000-.003l-.248-1.644.002.05a3.644 3.644 0 00-3.642-3.634z" style="line-height:normal;font-variant-ligatures:normal;font-variant-position:normal;font-variant-caps:normal;font-variant-numeric:normal;font-variant-alternates:normal;font-variant-east-asian:normal;font-feature-settings:normal;font-variation-settings:normal;text-indent:0;text-align:start;text-decoration-line:none;text-decoration-style:solid;text-decoration-color:#000;text-transform:none;text-orientation:mixed;white-space:normal;shape-padding:0;shape-margin:0;inline-size:0;isolation:auto;mix-blend-mode:normal;solid-color:#000;solid-opacity:1" overflow="visible" fill="#9ccc65"/><path d="M11.799 8.43c-.105.053-.21.106-.324.16-1.726.821-2.976 1.839-3.783 3.235-1.885 3.264-.827 7.443 2.34 9.433.28-.1.553-.217.819-.348.07-.036.164-.022.233-.06a.333.333 0 00.165-.208c1.84-1.095 3.136-3.02 3.136-5.312 0-1.445-.498-2.785-1.529-4.282-.213-.31-.429-.532-.582-.74a1.37 1.37 0 01-.293-.668.333.333 0 000-.002z" style="line-height:normal;font-variant-ligatures:normal;font-variant-position:normal;font-variant-caps:normal;font-variant-numeric:normal;font-variant-alternates:normal;font-variant-east-asian:normal;font-feature-settings:normal;font-variation-settings:normal;text-indent:0;text-align:start;text-decoration-line:none;text-decoration-style:solid;text-decoration-color:#000;text-transform:none;text-orientation:mixed;white-space:normal;shape-padding:0;shape-margin:0;inline-size:0;isolation:auto;mix-blend-mode:normal;solid-color:#000;solid-opacity:1" overflow="visible" fill="#74a838"/><path d="M16.659 5.304c-.865.26-1.647.834-2.252 1.598l-1.032 1.302c-.364.46-.96.747-1.586 1.045-1.641.78-2.743 1.691-3.465 2.942a6.28 6.28 0 002.298 8.574c3 1.73 6.844.702 8.576-2.296.733-1.27.97-2.704.816-4.518-.06-.702-.144-1.38.071-1.907l.612-1.51-.02.042a3.633 3.633 0 00-1.332-4.965 3.359 3.359 0 00-2.686-.307z" style="line-height:normal;font-variant-ligatures:normal;font-variant-position:normal;font-variant-caps:normal;font-variant-numeric:normal;font-variant-alternates:normal;font-variant-east-asian:normal;font-feature-settings:normal;font-variation-settings:normal;text-indent:0;text-align:start;text-decoration-line:none;text-decoration-style:solid;text-decoration-color:#000;text-transform:none;text-orientation:mixed;white-space:normal;shape-padding:0;shape-margin:0;inline-size:0;isolation:auto;mix-blend-mode:normal;solid-color:#000;solid-opacity:1" overflow="visible" fill="#fff79c"/><path d="M14.572 10.812c-.585.059-1.183.263-1.745.546-1.124.567-2.135 1.469-2.68 2.411a3.954 3.954 0 001.446 5.395 3.955 3.955 0 005.395-1.445c.544-.942.82-2.27.75-3.527-.071-1.256-.498-2.478-1.507-3.06-.505-.291-1.074-.378-1.66-.32z" style="line-height:normal;font-variant-ligatures:normal;font-variant-position:normal;font-variant-caps:normal;font-variant-numeric:normal;font-variant-alternates:normal;font-variant-east-asian:normal;font-feature-settings:normal;font-variation-settings:normal;text-indent:0;text-align:start;text-decoration-line:none;text-decoration-style:solid;text-decoration-color:#000;text-transform:none;text-orientation:mixed;white-space:normal;shape-padding:0;shape-margin:0;inline-size:0;isolation:auto;mix-blend-mode:normal;solid-color:#000;solid-opacity:1" overflow="visible" fill="#9a605a"/><path d="M17.076 6.757c-.536.119-1.039.439-1.396.91l-.993 1.31a.333.333 0 00.064.466.333.333 0 00.467-.064l.993-1.31c.532-.702 1.412-.923 2.104-.464.693.459.876 1.386.403 2.099a.333.333 0 00-.01.012l-.835 1.401a.333.333 0 00.115.455.333.333 0 00.458-.113l.825-1.386c.668-1.005.409-2.363-.587-3.023a2.065 2.065 0 00-1.608-.293z" style="line-height:normal;font-variant-ligatures:normal;font-variant-position:normal;font-variant-caps:normal;font-variant-numeric:normal;font-variant-alternates:normal;font-variant-east-asian:normal;font-feature-settings:normal;font-variation-settings:normal;text-indent:0;text-align:start;text-decoration-line:none;text-decoration-style:solid;text-decoration-color:#000;text-transform:none;text-orientation:mixed;white-space:normal;shape-padding:0;shape-margin:0;inline-size:0;isolation:auto;mix-blend-mode:normal;solid-color:#000;solid-opacity:1" overflow="visible" fill="#fed883"/><path d="M5.657 10.082a.333.333 0 00-.33.278 1.527 1.527 0 01-.196.548.333.333 0 00.108.457.333.333 0 00.457-.11c.14-.23.239-.493.288-.784a.333.333 0 00-.273-.384.333.333 0 00-.054-.005zM4.69 12.073a.333.333 0 00-.265.128c-.459.59-.872 1.26-1.034 2.1a.333.333 0 00.265.388.333.333 0 00.389-.263c.135-.7.478-1.266.906-1.817a.333.333 0 00-.059-.467.333.333 0 00-.201-.069z" style="line-height:normal;font-variant-ligatures:normal;font-variant-position:normal;font-variant-caps:normal;font-variant-numeric:normal;font-variant-alternates:normal;font-variant-east-asian:normal;font-feature-settings:normal;font-variation-settings:normal;text-indent:0;text-align:start;text-decoration-line:none;text-decoration-style:solid;text-decoration-color:#000;text-transform:none;text-orientation:mixed;white-space:normal;shape-padding:0;shape-margin:0;inline-size:0;isolation:auto;mix-blend-mode:normal;solid-color:#000;solid-opacity:1" overflow="visible" fill="#badb94"/><path d="M17.659 5.155c-.111 0-.222.006-.332.017.457.045.915.187 1.352.44a3.633 3.633 0 011.348 4.934l-.608 1.498c-.214.527-.13 1.205-.071 1.907.154 1.814-.083 3.248-.816 4.518a6.27 6.27 0 01-5.096 3.122 6.276 6.276 0 005.762-3.122c.733-1.27.97-2.704.816-4.518-.06-.702-.143-1.38.071-1.907l.608-1.498a3.633 3.633 0 00-1.348-4.935 3.346 3.346 0 00-1.686-.456z" style="line-height:normal;font-variant-ligatures:normal;font-variant-position:normal;font-variant-caps:normal;font-variant-numeric:normal;font-variant-alternates:normal;font-variant-east-asian:normal;font-feature-settings:normal;font-variation-settings:normal;text-indent:0;text-align:start;text-decoration-line:none;text-decoration-style:solid;text-decoration-color:#000;text-transform:none;text-orientation:mixed;white-space:normal;shape-padding:0;shape-margin:0;inline-size:0;isolation:auto;mix-blend-mode:normal;solid-color:#000;solid-opacity:1" overflow="visible" fill="#9ccc65"/><path d="M15.007 10.796a3.18 3.18 0 00-.786.072c.235.054.462.14.678.264 1.01.582 1.436 1.803 1.507 3.06.07 1.256-.206 2.585-.75 3.527a3.943 3.943 0 01-2.749 1.914 3.954 3.954 0 004.08-1.914c.545-.942.821-2.271.75-3.527-.07-1.257-.497-2.478-1.506-3.06a2.578 2.578 0 00-1.224-.336z" style="line-height:normal;font-variant-ligatures:normal;font-variant-position:normal;font-variant-caps:normal;font-variant-numeric:normal;font-variant-alternates:normal;font-variant-east-asian:normal;font-feature-settings:normal;font-variation-settings:normal;text-indent:0;text-align:start;text-decoration-line:none;text-decoration-style:solid;text-decoration-color:#000;text-transform:none;text-orientation:mixed;white-space:normal;shape-padding:0;shape-margin:0;inline-size:0;isolation:auto;mix-blend-mode:normal;solid-color:#000;solid-opacity:1" overflow="visible" fill="#66342d"/></g></svg><svg viewBox="0 0 30 30" id="icons8-youtube-play" xmlns="http://www.w3.org/2000/svg"><path d="M15 4c-4.186 0-9.62 1.049-9.62 1.049l-.013.015A3.99 3.99 0 002 9v12.002a4 4 0 003.377 3.943l.004.006s5.433 1.051 9.619 1.051 9.62-1.05 9.62-1.05l.001-.003A4 4 0 0028 21.002V9a4 4 0 00-3.377-3.945l-.004-.006S19.186 4 15 4zm-3 6.398L20 15l-8 4.602v-9.204z"/></svg><svg viewBox="0 0 22.578 22.578" id="pineapple_fruit_food_icon_218369" xmlns="http://www.w3.org/2000/svg"><g stroke-width=".795"><path style="-inkscape-stroke:none" d="M8.267 4.186a.333.333 0 00.081-.211c.022-1.06-.176-1.822-.865-2.855-.238-.214-.328-.146-.555 0-.691 1.037-.862 1.817-.862 2.848 0 .08.028.158.08.218z" color="#000" fill="#349951"/><path style="-inkscape-stroke:none" d="M6.731 4.633c.171-1.142.254-2.442 1.073-2.987a7.118 7.118 0 00-.32-.526c-.158-.226-.439-.171-.556 0-.691 1.037-.863 1.818-.863 2.848z" color="#000" fill="#26783f"/><path style="-inkscape-stroke:none" d="M10.866 3.302c-1.363 0-2.734.163-3.808.658a.333.333 0 00-.093.54L8.46 5.956a.333.333 0 00.496-.039c.456-.606 1.286-1.188 2.145-2.047a.333.333 0 00-.236-.567z" color="#000" fill="#50b86b"/><path style="-inkscape-stroke:none" d="M7.058 3.96a.333.333 0 00-.093.54l.611.595a.333.333 0 01.148-.47c.932-.43 2.089-.608 3.27-.648l.108-.107a.333.333 0 00-.235-.568c-1.585-.007-2.752.187-3.809.658z" color="#000" fill="#349951"/><path style="-inkscape-stroke:none" d="M3.545 3.302a.333.333 0 00-.236.567c.8.801 1.442 1.35 1.818 1.917l.13 2.076a.333.333 0 00.423.3l3.619-1.008a.333.333 0 00.214-.457l-.494-1.105c0-.002-.002-.002-.003-.003-.354-.912-1.176-1.49-2.16-1.828-.983-.339-2.15-.46-3.311-.46z" color="#000" fill="#50b86b"/><path style="-inkscape-stroke:none" d="M7.52 9.181l-.076-2.813C6.364 5.26 4.438 4.965 2.548 4.965a.333.333 0 00-.236.568c.965.938 2.215 1.975 2.23 3.235z" color="#000" fill="#50b86b"/><path style="-inkscape-stroke:none" d="M2.547 4.965a.333.333 0 00-.235.567c.217.218.423.416.617.602a.333.333 0 01.284-.503c1.593 0 3.21.21 4.327.938l-.003-.017a.333.333 0 00-.093-.184C6.364 5.26 4.438 4.965 2.547 4.965z" color="#000" fill="#349951"/><path style="-inkscape-stroke:none" d="M11.866 4.965c-2.396-.031-5.601.87-5.658 3.33 0 .163.119.302.28.328l2.995.474a.333.333 0 00.386-.329c.098-1.495 1.363-2.369 2.233-3.235a.333.333 0 00-.236-.568z" color="#000" fill="#50b86b"/><path style="-inkscape-stroke:none" d="M11.866 4.965c-2.396-.032-5.593.528-5.658 3.33 0 .163.12.302.28.328l.398.063c.591-2.964 3.103-2.968 5.108-3.046l.108-.108c.188-.164.103-.56-.236-.567z" color="#000" fill="#349951"/><path style="-inkscape-stroke:none" d="M6.707 7.96c-1.496 0-2.768.801-3.636 2.044-.868 1.243-1.356 2.927-1.356 4.779 0 1.85.488 3.538 1.356 4.78.868 1.243 2.14 2.045 3.636 2.045h.997c1.496 0 2.77-.802 3.639-2.045.868-1.242 1.354-2.93 1.354-4.78 0-1.852-.486-3.536-1.354-4.779C10.475 8.761 9.2 7.96 7.704 7.96z" color="#000" fill="#ffa61a"/><path style="-inkscape-stroke:none" d="M8.248 15.438l-.78.779-1.411-1.411 1.411-1.41 1.502 1.5.821-.061c.861-.859 1.72-1.719 2.58-2.579a8.182 8.182 0 00-.23-.711l-.907.907-1.411-1.411 1.313-1.314a5.344 5.344 0 00-.445-.496l-1.339 1.34-1.413-1.413 1.004-1.005a4.02 4.02 0 00-.774-.166L5.586 10.57l-1.59-1.589a5.076 5.076 0 00-.48.464l1.598 1.597-1.41 1.41-1.281-1.28a7.78 7.78 0 00-.26.68l1.07 1.071-1.413 1.412-.09-.09c-.024.383-.013.763.002 1.12l.089-.089 1.412 1.413-1.059 1.059c.078.234.166.46.262.68l1.268-1.269 1.41 1.411-1.576 1.576c.152.165.313.32.481.46l1.566-1.565 1.413 1.413-1.077 1.077c.254.05.516.077.786.077h.07c1.052-1.036 2.088-1.995 3.264-3.086a.333.333 0 10-.452-.489l-2.112 1.959-1.422-1.422 2.662-2.66zm-.78-5.81l1.413 1.413-1.412 1.412-1.413-1.412zm1.884 1.883l1.411 1.412-1.412 1.412-1.412-1.411zm-3.768.001l1.414 1.413-1.412 1.41-1.412-1.412zm-1.88 1.881l1.412 1.413-1.412 1.413-1.413-1.413zm1.882 1.883l1.412 1.412L5.585 18.1 4.174 16.69z" color="#000" fill="#e05e10"/><path d="M7.572 16.475c0 .56.223 1.098.619 1.494.349.319.83.752.914 1.064l.366 1.103v.003c.102.307.29.568.533.76a5.13 5.13 0 001.339-1.336c.868-1.243 1.353-2.93 1.353-4.78 0-.274-.01-.543-.031-.809H8.55c-.51 0-.977.463-.978.973z" fill="#ff8c1a"/><path style="-inkscape-stroke:none" d="M8.55 13.974a.911.911 0 00-.404.099l.824.823.821-.061.861-.86h-.94l-.361.36-.361-.36h-.438zm-.067 1.366a.333.333 0 00-.235.098l-.676.676v.361c0 .175.021.348.063.515l1.082-1.08a.333.333 0 00-.234-.57zm1.345 2.605a.331.331 0 00-.24.088l-.694.644c.17.198.222.389.303.631.28-.26.548-.512.844-.786a.333.333 0 00-.213-.577z" color="#000" fill="#bf5110"/><path style="-inkscape-stroke:none" d="M8.55 14.618a.333.333 0 00-.335.332v1.525c0 .39.155.764.43 1.04.434.381.847.84 1.07 1.314l.365 1.105a.988.988 0 00.936.674c.613-.033 1.272-.018 1.799.174l.911.457a1.822 1.822 0 001.629 0c.522-.302 1.107-.57 1.653-.631h1.054a.988.988 0 00.936-.674l.369-1.105c.22-.56.635-.884 1.066-1.315.276-.275.43-.65.43-1.039V14.95a.333.333 0 00-.332-.332H8.55z" color="#000" fill="#fed825"/><path style="-inkscape-stroke:none" d="M10.168 14.618v1.487c0 1.874 1.916 3.505 4.371 3.505 2.455 0 4.371-1.631 4.371-3.505v-1.487h-8.742z" color="#000" fill="#fee881"/><path style="-inkscape-stroke:none" d="M11.955 14.618v.331c.042 1.563 1.125 2.334 2.508 2.33 1.383-.005 2.647-.894 2.663-2.33v-.331h-.665v.331c-.054 1.216-.973 1.655-1.998 1.666-1.025.012-1.834-.638-1.843-1.666v-.331z" color="#000" fill="#e05e10"/><path style="-inkscape-stroke:none" d="M6.707 7.96c-1.495 0-2.768.801-3.636 2.044-.868 1.243-1.356 2.927-1.356 4.778 0 1.851.488 3.538 1.356 4.781.28.402.604.758.964 1.056a5.719 5.719 0 01-.299-.39c-.868-1.243-1.356-2.93-1.356-4.781 0-1.851.488-3.536 1.356-4.778.868-1.243 2.141-2.044 3.637-2.044h.997c1.012 0 1.923.367 2.675.99-.85-1.019-2.008-1.656-3.34-1.656z" color="#000" fill="#ff8c1a"/><path style="-inkscape-stroke:none" d="M7.53 8.626l.94.001.473-.474-.004-.001a3.748 3.748 0 00-.77-.165zm-3.541.361c-.172.142-.325.304-.472.458l.665.665c.15-.166.311-.32.48-.463zm6.63.316c.144.093.283.195.417.306-.102-.131-.232-.261-.345-.378zM2.424 11.17c-.102.23-.183.462-.26.682l.666.665c.077-.234.164-.462.26-.68l-.666-.667zm-.603 3.164l-.09-.09c-.024.383-.013.763.002 1.12l.089-.089.567.568c-.015-.317-.003-.64.007-.934l-.104-.104.117-.118c.028-.37.075-.731.142-1.082zm.743 3.024l-.389.389c.075.234.17.46.262.68l.312-.312a8.774 8.774 0 01-.185-.757zm1.06 2.702l-.085.085c.155.172.343.347.481.46-.142-.178-.283-.383-.396-.545z" color="#000" fill="#bf5110"/><path style="-inkscape-stroke:none" d="M3.545 3.302a.333.333 0 00-.236.568c.22.22.426.418.62.605a.333.333 0 01.282-.507c1.16 0 2.327.12 3.311.459.44.151.846.35 1.194.605-.426-.599-1.094-1.007-1.86-1.27-.984-.34-2.15-.46-3.31-.46z" color="#000" fill="#349951"/></g></svg></svg>